<svg xmlns="http://www.w3.org/2000/svg" version="1.1" xmlns:xlink="http://www.w3.org/1999/xlink" xmlns:svgjs="http://svgjs.dev/svgjs" width="1000" height="1000" viewBox="0 0 1000 1000"><rect width="1000" height="1000" fill="#ffffff"></rect><g transform="matrix(0.7,0,0,0.7,149.57841930724578,379.9022775289284)"><svg viewBox="0 0 396 136" data-background-color="#ffffff" preserveAspectRatio="xMidYMid meet" height="343" width="1000" xmlns="http://www.w3.org/2000/svg" xmlns:xlink="http://www.w3.org/1999/xlink"><g id="tight-bounds" transform="matrix(1,0,0,1,0.24150470868821117,0.027031470494534915)"><svg viewBox="0 0 395.5199999999999 135.9459370590109" height="135.9459370590109" width="395.5199999999999"><g><svg viewBox="0 0 395.5199999999999 135.9459370590109" height="135.9459370590109" width="395.5199999999999"><g><svg viewBox="0 0 881.2656141636662 302.90372096319874" height="135.9459370590109" width="395.5199999999999"><g><svg viewBox="0 0 881.2656141636662 302.90372096319874" height="302.90372096319874" width="881.2656141636662"><g><svg viewBox="0 0 881.2656141636662 302.90372096319874" height="302.90372096319874" width="881.2656141636662"><g><svg viewBox="0 0 881.2656141636662 245.672304" height="245.672304" width="881.2656141636662"><g><svg><g></g><g></g></svg></g><g><svg><g></g><g><svg></svg></g></svg></g><g id="text-0"><svg viewBox="0 0 881.2656141636662 245.672304" height="245.672304" width="881.2656141636662"><g transform="matrix(1,0,0,1,0,84.3581736373178)"><svg width="245.672304" viewBox="0.6 -36.25 117.388701171875 36.75" height="76.90443962026185" data-palette-color="#ee3e38"><path d="M17.15-2.5L17.15-2.5Q17.15-1.45 16.4-0.75 15.65-0.05 14.6-0.05 13.55-0.05 12.85-0.8 12.15-1.55 12.15-2.6L12.15-2.6Q12.2-4.35 12.1-16.75L12.1-16.75Q12.05-25.8 12.4-30.75L12.4-30.75Q6.95-30.8 3.2-30.65L3.2-30.65Q2.15-30.6 1.4-31.33 0.65-32.05 0.6-33.08 0.55-34.1 1.28-34.85 2-35.6 3-35.65L3-35.65Q7.3-35.8 14.95-35.75 22.6-35.7 26.9-35.75L26.9-35.75Q27.95-35.75 28.7-35.05 29.45-34.35 29.45-33.3 29.45-32.25 28.75-31.5 28.05-30.75 27-30.75L27-30.75Q23.45-30.7 17.4-30.7L17.4-30.7Q17.05-25.9 17.1-16.8L17.1-16.8Q17.2-4.35 17.15-2.5L17.15-2.5ZM30.4-1.5L30.4-1.5Q30-0.5 29.02-0.1 28.05 0.3 27.07-0.1 26.1-0.5 25.7-1.48 25.3-2.45 25.7-3.4L25.7-3.4Q26.7-5.85 28.32-10.85 29.95-15.85 30.65-17.6L30.65-17.6Q31-18.6 33.5-24.7L33.5-24.7Q35.85-30.7 37.15-34.45L37.15-34.45Q37.5-35.45 38.42-35.93 39.35-36.4 40.35-36.05L40.35-36.05Q40.8-35.9 41.15-35.6L41.15-35.6Q42.15-35.25 42.55-34.25L42.55-34.25 55-3.5Q55.4-2.5 55-1.53 54.6-0.55 53.62-0.15 52.65 0.25 51.67-0.15 50.7-0.55 50.3-1.5L50.3-1.5 46.55-11.2Q44.5-11.1 44.25-11.1L44.25-11.1Q37.5-10.85 33.65-10.85L33.65-10.85Q31.4-4.25 30.4-1.5L30.4-1.5ZM35.5-15.95L35.5-15.95Q39.7-16 44.5-16.15L44.5-16.15 39.95-27.15 35.5-15.95ZM70.05 0.5L70.05 0.5Q66.5 0.5 63.65-0.88 60.8-2.25 59.17-4.67 57.55-7.1 57.55-10.2L57.55-10.2Q57.55-11.4 58.32-12.13 59.1-12.85 60.15-12.85L60.15-12.85Q60.95-12.85 61.6-12.35 62.25-11.85 62.4-10.85L62.4-10.85Q63.1-4.4 70.7-4.4L70.7-4.4Q74.34-4.4 76.45-6 78.55-7.6 78.55-10.1L78.55-10.1Q78.55-11.6 77.09-12.63 75.65-13.65 73.15-14.45L73.15-14.45 71.59-15Q66.65-16.65 64.5-17.7L64.5-17.7Q61.4-19.25 59.87-21.35 58.35-23.45 58.35-26.3L58.35-26.3Q58.35-28.8 59.95-31.1 61.55-33.4 64.42-34.83 67.3-36.25 70.84-36.25L70.84-36.25Q74.55-36.25 77.45-34.9 80.34-33.55 81.95-31.3 83.55-29.05 83.55-26.5L83.55-26.5Q83.55-25.2 82.82-24.48 82.09-23.75 81.05-23.75L81.05-23.75Q80.05-23.75 79.34-24.48 78.65-25.2 78.65-26.4L78.65-26.4Q78.65-27.65 77.57-28.83 76.5-30 74.67-30.73 72.84-31.45 70.7-31.45L70.7-31.45Q67-31.45 65.2-30.18 63.4-28.9 63.3-26.65L63.3-26.65Q63.25-25.45 64.05-24.55 64.84-23.65 66.55-22.7L66.55-22.7Q68.15-21.85 69.95-21.13 71.75-20.4 74.75-19.4L74.75-19.4Q78.75-18.05 81.12-15.88 83.5-13.7 83.5-10.25L83.5-10.25Q83.5-7.05 81.59-4.6 79.7-2.15 76.62-0.83 73.55 0.5 70.05 0.5L70.05 0.5ZM113.54-0.9L100.84-17.05 95.64-12.75Q95.69-6.9 95.89-2.6L95.89-2.6Q95.94-1.55 95.27-0.78 94.59 0 93.54 0.05 92.49 0.1 91.72-0.58 90.94-1.25 90.89-2.3L90.89-2.3Q90.74-5.3 90.69-8.2L90.69-8.2Q90.64-11.8 90.64-15.55 90.64-19.3 90.59-21.4L90.59-21.4Q90.59-22.7 90.39-26.78 90.19-30.85 90.24-33.3L90.24-33.3Q90.24-34.35 90.99-35.05 91.74-35.75 92.79-35.75 93.84-35.75 94.54-35 95.24-34.25 95.24-33.2L95.24-33.2Q95.19-30.8 95.39-26.8 95.59-22.8 95.59-21.5L95.59-21.5Q95.59-20.4 95.64-19.15L95.64-19.15Q103.49-25.7 111.94-34.9L111.94-34.9Q112.64-35.65 113.69-35.7 114.74-35.75 115.49-35.05 116.24-34.35 116.29-33.3 116.34-32.25 115.64-31.5L115.64-31.5Q110.04-25.3 104.59-20.35L104.59-20.35 117.44-4Q118.09-3.2 117.97-2.18 117.84-1.15 117.04-0.5 116.24 0.15 115.22 0.03 114.19-0.1 113.54-0.9L113.54-0.9Z" opacity="1" transform="matrix(1,0,0,1,0,0)" fill="#ee3e38" class="undefined-iy-0"></path></svg></g><g><svg xmlns="http://www.w3.org/2000/svg" xmlns:xlink="http://www.w3.org/1999/xlink" version="1.0" x="259.710804" y="0" viewBox="2 0 12.883127534926103 14.169375348513654" style="enable-background:new 0 0 16 16;" xml:space="preserve" height="245.672304" width="223.37100587593247" class="icon-wb-0" data-fill-palette-color="accent" id="wb-0"><path d="M10.216 14.068c-0.122 0.135-0.322 0.135-0.444 0.001l-2.769-3.084c-0.123-0.135-0.118-0.351 0.011-0.479l0.475-0.476c0.129-0.128 0.338-0.127 0.464 0.004L9.758 11.9c0.127 0.131 0.332 0.128 0.454-0.007l3.424-3.752c0.123-0.134 0.334-0.145 0.47-0.022l0.42 0.33c0.458 0.458 0.494 0.506 0 1L10.216 14.068z" fill="#000000" data-fill-palette-color="accent"></path><path d="M7.5 2C7 2 7 3 7 3h1C8 3 8 2 7.5 2z" fill="#000000" data-fill-palette-color="accent"></path><path d="M12 2h-2C9.914 1 9 0 7.5 0S5.086 1 5 2H3c0 0-1 0-1 1 0 0.815 0 9 0 10s1 1 1 1h5.628l-2.5-2.485c-0.42-0.461-0.191-1.052 0.25-1.492l0.75-0.747c0.217-0.217 0.444-0.248 0.75-0.248 0.309 0 0.785 0.279 1 0.502l1.145 1.25L13 7.571C13 7.571 13 4 13 3S12 2 12 2zM4.5 8H4c0 0-0.5 0-0.5-0.5S4 7 4 7h0.5C4.5 7 5 7 5 7.5S4.5 8 4.5 8zM4.5 6H4c0 0-0.5 0-0.5-0.5S4 5 4 5h0.5C4.5 5 5 5 5 5.5S4.5 6 4.5 6zM11 8H6.5C6.5 8 6 8 6 7.5S6.5 7 6.5 7H11c0 0 0.5 0 0.5 0.5S11 8 11 8zM11 6H6.5C6.5 6 6 6 6 5.5S6.5 5 6.5 5H11c0 0 0.5 0 0.5 0.5S11 6 11 6zM3 4c0 0 0-1 1-1s2 0 2 0 0-1.938 1.5-1.938S9.027 3 9 3c0 0 1 0 2 0s1 1 1 1H3z" fill="#000000" data-fill-palette-color="accent"></path></svg><g></g></g><g transform="matrix(1,0,0,1,497.12030987593243,46.74841006399999)"><svg width="384.1453042877338" viewBox="0.5499999999999999 -36.19939019235199 91.964830324602 36.34939019235199" height="151.825483872" data-palette-color="#ee3e38"><path d="M5.45-1.5L5.45-1.5Q5.05-0.5 4.08-0.1 3.1 0.3 2.13-0.1 1.15-0.5 0.75-1.48 0.35-2.45 0.75-3.4L0.75-3.4Q1.75-5.85 3.38-10.85 5-15.85 5.7-17.6L5.7-17.6Q6.05-18.6 8.55-24.7L8.55-24.7Q10.9-30.7 12.2-34.45L12.2-34.45Q12.55-35.45 13.48-35.93 14.4-36.4 15.4-36.05L15.4-36.05Q15.85-35.9 16.2-35.6L16.2-35.6Q17.2-35.25 17.6-34.25L17.6-34.25 30.05-3.5Q30.45-2.5 30.05-1.53 29.65-0.55 28.68-0.15 27.7 0.25 26.73-0.15 25.75-0.55 25.35-1.5L25.35-1.5 21.6-11.2Q19.55-11.1 19.3-11.1L19.3-11.1Q12.55-10.85 8.7-10.85L8.7-10.85Q6.45-4.25 5.45-1.5L5.45-1.5ZM10.55-15.95L10.55-15.95Q14.75-16 19.55-16.15L19.55-16.15 15-27.15 10.55-15.95ZM35.45-2.35L35.45-2.35Q35.45-2.85 35.1-17.1L35.1-17.1Q34.9-26.95 35.4-33.1L35.4-33.1Q35.5-34.15 36.27-34.8 37.05-35.45 38.1-35.4L38.1-35.4Q38.6-35.35 39.05-35.1L39.05-35.1Q44.9-36.3 49.6-35.65L49.6-35.65Q57.85-34.5 60.3-28.15L60.3-28.15Q61.25-25.1 61.02-23.18 60.8-21.25 59.87-19.73 58.95-18.2 57.52-17.25 56.1-16.3 54.65-15.73 53.2-15.15 51.55-14.85L51.55-14.85Q46.45-13.8 40.2-14.5L40.2-14.5Q40.45-4.9 40.45-2.35L40.45-2.35Q40.45-1.3 39.72-0.58 39 0.15 37.95 0.15 36.9 0.15 36.17-0.58 35.45-1.3 35.45-2.35L35.45-2.35ZM40.1-19.45L40.1-19.45Q40.4-19.5 40.75-19.5L40.75-19.5Q46.2-18.85 50.55-19.75L50.55-19.75Q55.7-20.8 56.05-23.75L56.05-23.75Q56.15-24.45 55.6-26.35L55.6-26.35Q54.25-29.95 48.95-30.7L48.95-30.7Q45.15-31.2 40.25-30.25L40.25-30.25Q40-25.85 40.1-19.45L40.1-19.45ZM66.9-2.35L66.9-2.35Q66.9-2.85 66.55-17.1L66.55-17.1Q66.34-26.95 66.84-33.1L66.84-33.1Q66.95-34.15 67.72-34.8 68.5-35.45 69.55-35.4L69.55-35.4Q70.05-35.35 70.5-35.1L70.5-35.1Q76.34-36.3 81.05-35.65L81.05-35.65Q89.3-34.5 91.75-28.15L91.75-28.15Q92.7-25.1 92.47-23.18 92.25-21.25 91.32-19.73 90.4-18.2 88.97-17.25 87.55-16.3 86.09-15.73 84.65-15.15 83-14.85L83-14.85Q77.9-13.8 71.65-14.5L71.65-14.5Q71.9-4.9 71.9-2.35L71.9-2.35Q71.9-1.3 71.17-0.58 70.45 0.15 69.4 0.15 68.34 0.15 67.62-0.58 66.9-1.3 66.9-2.35L66.9-2.35ZM71.55-19.45L71.55-19.45Q71.84-19.5 72.2-19.5L72.2-19.5Q77.65-18.85 82-19.75L82-19.75Q87.15-20.8 87.5-23.75L87.5-23.75Q87.59-24.45 87.05-26.35L87.05-26.35Q85.7-29.95 80.4-30.7L80.4-30.7Q76.59-31.2 71.7-30.25L71.7-30.25Q71.45-25.85 71.55-19.45L71.55-19.45Z" opacity="1" transform="matrix(1,0,0,1,0,0)" fill="#ee3e38" class="undefined-iy-1"></path></svg></g></svg></g></svg></g><g transform="matrix(1,0,0,1,0,263.82759648779296)"><svg viewBox="0 0 881.2656141636662 39.076124475405805" height="39.076124475405805" width="881.2656141636662"><g transform="matrix(1,0,0,1,0,0)"><svg width="881.2656141636662" viewBox="2 -35.35 808.4083333333299 35.85" height="39.076124475405805" data-palette-color="#31a304"><path d="M11.2-0.05L2.25 0Q2 0 2-0.25L2-0.25 2.1-34.6Q2.1-34.8 2.3-34.8L2.3-34.8 11.65-34.85Q14.4-34.9 16.68-33.55 18.95-32.2 20.3-29.93 21.65-27.65 21.65-24.9L21.65-24.9 21.65-10.55Q21.65-7.65 20.25-5.28 18.85-2.9 16.5-1.5 14.15-0.1 11.2-0.05L11.2-0.05ZM8.15-28.8L8.1-6.15 11.2-6.15Q13.05-6.15 14.33-7.45 15.6-8.75 15.6-10.55L15.6-10.55 15.6-24.95Q15.6-26.55 14.43-27.73 13.25-28.9 11.65-28.85L11.65-28.85 8.15-28.8ZM41.95 0L25.8 0Q25.6 0 25.6-0.25L25.6-0.25 25.65-34.6Q25.65-34.8 25.85-34.8L25.85-34.8 41.9-34.8Q42.1-34.8 42.1-34.55L42.1-34.55 42.1-28.95Q42.1-28.75 41.9-28.75L41.9-28.75 31.65-28.75 31.65-20.95 41.9-20.95Q42.1-20.95 42.1-20.75L42.1-20.75 42.15-15.1Q42.15-14.9 41.95-14.9L41.95-14.9 31.65-14.9 31.65-6.15 41.95-6.15Q42.15-6.15 42.15-5.9L42.15-5.9 42.15-0.2Q42.15 0 41.95 0L41.95 0ZM58.24 0L52.2 0Q51.99 0 51.95-0.25L51.95-0.25 45.05-34.6Q44.99-34.8 45.24-34.8L45.24-34.8 50.89-34.8Q51.09-34.8 51.14-34.6L51.14-34.6 55.24-11.7 59.24-34.6Q59.3-34.8 59.49-34.8L59.49-34.8 65.09-34.8Q65.34-34.8 65.3-34.6L65.3-34.6 58.49-0.25Q58.45 0 58.24 0L58.24 0ZM84.59 0L68.44 0Q68.24 0 68.24-0.25L68.24-0.25 68.29-34.6Q68.29-34.8 68.49-34.8L68.49-34.8 84.54-34.8Q84.74-34.8 84.74-34.55L84.74-34.55 84.74-28.95Q84.74-28.75 84.54-28.75L84.54-28.75 74.29-28.75 74.29-20.95 84.54-20.95Q84.74-20.95 84.74-20.75L84.74-20.75 84.79-15.1Q84.79-14.9 84.59-14.9L84.59-14.9 74.29-14.9 74.29-6.15 84.59-6.15Q84.79-6.15 84.79-5.9L84.79-5.9 84.79-0.2Q84.79 0 84.59 0L84.59 0ZM105.59 0L89.44 0Q89.24 0 89.24-0.25L89.24-0.25 89.29-34.55Q89.29-34.8 89.54-34.8L89.54-34.8 95.09-34.8Q95.34-34.8 95.34-34.55L95.34-34.55 95.29-6.15 105.59-6.15Q105.84-6.15 105.84-5.9L105.84-5.9 105.84-0.25Q105.84 0 105.59 0L105.59 0ZM117.64 0.5L117.64 0.5Q114.94 0.5 112.71-0.88 110.49-2.25 109.14-4.53 107.79-6.8 107.79-9.55L107.79-9.55 107.84-25.4Q107.84-28.15 109.16-30.4 110.49-32.65 112.74-34 114.99-35.35 117.64-35.35L117.64-35.35Q120.34-35.35 122.54-34 124.74-32.65 126.06-30.4 127.39-28.15 127.39-25.4L127.39-25.4 127.44-9.55Q127.44-6.8 126.11-4.53 124.79-2.25 122.56-0.88 120.34 0.5 117.64 0.5ZM117.64-5.55L117.64-5.55Q119.14-5.55 120.26-6.78 121.39-8 121.39-9.55L121.39-9.55 121.34-25.4Q121.34-27.05 120.29-28.2 119.24-29.35 117.64-29.35L117.64-29.35Q116.09-29.35 114.99-28.23 113.89-27.1 113.89-25.4L113.89-25.4 113.89-9.55Q113.89-7.9 114.99-6.73 116.09-5.55 117.64-5.55ZM137.09 0L131.49 0Q131.24 0 131.24-0.25L131.24-0.25 131.34-34.6Q131.34-34.8 131.54-34.8L131.54-34.8 141.14-34.8Q145.74-34.8 148.41-32 151.09-29.2 151.09-24.4L151.09-24.4Q151.09-20.85 149.69-18.25 148.29-15.65 146.04-14.25 143.79-12.85 141.14-12.85L141.14-12.85 137.34-12.85 137.34-0.25Q137.34 0 137.09 0L137.09 0ZM137.34-28.8L137.34-18.9 141.14-18.9Q142.74-18.9 143.91-20.43 145.09-21.95 145.09-24.4L145.09-24.4Q145.09-26.35 144.04-27.6 142.99-28.85 141.14-28.85L141.14-28.85 137.34-28.8ZM170.83 0L154.68 0Q154.48 0 154.48-0.25L154.48-0.25 154.53-34.6Q154.53-34.8 154.73-34.8L154.73-34.8 170.78-34.8Q170.98-34.8 170.98-34.55L170.98-34.55 170.98-28.95Q170.98-28.75 170.78-28.75L170.78-28.75 160.53-28.75 160.53-20.95 170.78-20.95Q170.98-20.95 170.98-20.75L170.98-20.75 171.03-15.1Q171.03-14.9 170.83-14.9L170.83-14.9 160.53-14.9 160.53-6.15 170.83-6.15Q171.03-6.15 171.03-5.9L171.03-5.9 171.03-0.2Q171.03 0 170.83 0L170.83 0ZM184.68-0.05L175.73 0Q175.48 0 175.48-0.25L175.48-0.25 175.58-34.6Q175.58-34.8 175.78-34.8L175.78-34.8 185.13-34.85Q187.88-34.9 190.16-33.55 192.43-32.2 193.78-29.93 195.13-27.65 195.13-24.9L195.13-24.9 195.13-10.55Q195.13-7.65 193.73-5.28 192.33-2.9 189.98-1.5 187.63-0.1 184.68-0.05L184.68-0.05ZM181.63-28.8L181.58-6.15 184.68-6.15Q186.53-6.15 187.81-7.45 189.08-8.75 189.08-10.55L189.08-10.55 189.08-24.95Q189.08-26.55 187.91-27.73 186.73-28.9 185.13-28.85L185.13-28.85 181.63-28.8ZM217.13 0L211.08 0Q210.88 0 210.83-0.25L210.83-0.25 204.93-34.6Q204.88-34.8 205.08-34.8L205.08-34.8 210.68-34.8Q210.88-34.8 210.93-34.6L210.93-34.6 214.13-12 217.43-34.6Q217.48-34.8 217.73-34.8L217.73-34.8 222.23-34.8Q222.43-34.8 222.48-34.6L222.48-34.6 225.73-12 228.98-34.6Q229.03-34.8 229.23-34.8L229.23-34.8 234.78-34.8Q235.03-34.8 234.98-34.6L234.98-34.6 229.03-0.25Q228.98-0.15 228.88-0.08 228.78 0 228.78 0L228.78 0 222.73 0Q222.58 0 222.48-0.25L222.48-0.25 219.93-18.2 217.38-0.25Q217.33 0 217.13 0L217.13 0ZM243.82 0L238.17 0Q237.92 0 237.92-0.25L237.92-0.25 237.97-34.6Q237.97-34.8 238.17-34.8L238.17-34.8 243.77-34.8Q243.97-34.8 243.97-34.6L243.97-34.6 244.02-0.25Q244.02 0 243.82 0L243.82 0ZM259.07 0L253.42 0Q253.22 0 253.22-0.25L253.22-0.25 253.22-28.75 246.72-28.75Q246.47-28.75 246.47-29L246.47-29 246.52-34.6Q246.52-34.8 246.72-34.8L246.72-34.8 265.72-34.8Q265.97-34.8 265.97-34.6L265.97-34.6 265.97-29Q265.97-28.75 265.77-28.75L265.77-28.75 259.22-28.75 259.27-0.25Q259.27 0 259.07 0L259.07 0ZM274.27 0L268.62 0Q268.42 0 268.42-0.25L268.42-0.25 268.47-34.6Q268.47-34.8 268.72-34.8L268.72-34.8 274.27-34.8Q274.52-34.8 274.52-34.6L274.52-34.6 274.47-21 281.97-21 281.97-34.6Q281.97-34.8 282.17-34.8L282.17-34.8 287.72-34.8Q287.97-34.8 287.97-34.6L287.97-34.6 288.07-0.25Q288.07 0 287.82 0L287.82 0 282.22 0Q281.97 0 281.97-0.25L281.97-0.25 281.97-14.95 274.47-14.95 274.47-0.25Q274.47 0 274.27 0L274.27 0ZM305.41 0L299.76 0Q299.56 0 299.56-0.25L299.56-0.25 299.66-34.6Q299.66-34.8 299.86-34.8L299.86-34.8 305.96-34.8Q306.16-34.8 306.31-34.6L306.31-34.6 310.86-28 315.41-34.6Q315.56-34.8 315.76-34.8L315.76-34.8 321.91-34.8Q322.11-34.8 322.11-34.6L322.11-34.6 322.21-0.25Q322.21 0 322.01 0L322.01 0 316.36 0Q316.16 0 316.16-0.25L316.16-0.25 316.11-25.75 310.86-18.15 305.66-25.75 305.61-0.25Q305.61 0 305.41 0L305.41 0ZM342.76 0L326.61 0Q326.41 0 326.41-0.25L326.41-0.25 326.46-34.6Q326.46-34.8 326.66-34.8L326.66-34.8 342.71-34.8Q342.91-34.8 342.91-34.55L342.91-34.55 342.91-28.95Q342.91-28.75 342.71-28.75L342.71-28.75 332.46-28.75 332.46-20.95 342.71-20.95Q342.91-20.95 342.91-20.75L342.91-20.75 342.96-15.1Q342.96-14.9 342.76-14.9L342.76-14.9 332.46-14.9 332.46-6.15 342.76-6.15Q342.96-6.15 342.96-5.9L342.96-5.9 342.96-0.2Q342.96 0 342.76 0L342.76 0ZM353.26 0L347.61 0Q347.41 0 347.41-0.25L347.41-0.25 347.51-34.6Q347.51-34.8 347.71-34.8L347.71-34.8 357.81-34.8Q360.51-34.8 362.78-33.48 365.06-32.15 366.41-29.93 367.76-27.7 367.76-24.9L367.76-24.9Q367.76-23.05 367.21-21.58 366.66-20.1 365.91-19.07 365.16-18.05 364.56-17.55L364.56-17.55Q367.26-14.55 367.26-10.5L367.26-10.5 367.31-0.25Q367.31 0 367.06 0L367.06 0 361.41 0Q361.21 0 361.21-0.15L361.21-0.15 361.21-10.5Q361.21-12.3 359.93-13.63 358.66-14.95 356.81-14.95L356.81-14.95 353.51-14.95 353.46-0.25Q353.46 0 353.26 0L353.26 0ZM353.51-28.8L353.51-20.95 357.81-20.95Q359.36-20.95 360.56-22.1 361.76-23.25 361.76-24.9L361.76-24.9Q361.76-26.5 360.58-27.65 359.41-28.8 357.81-28.8L357.81-28.8 353.51-28.8ZM376.96 0L371.96 0Q371.56 0 371.56-0.35L371.56-0.35 371.51-34.4Q371.51-34.8 371.91-34.8L371.91-34.8 376.41-34.8 384.86-15.1 384.61-34.4Q384.61-34.8 385.06-34.8L385.06-34.8 390.01-34.8Q390.31-34.8 390.31-34.4L390.31-34.4 390.36-0.3Q390.36 0 390.11 0L390.11 0 385.71 0 377.06-18.4 377.41-0.4Q377.41 0 376.96 0L376.96 0ZM410.6 0.5L410.6 0.5Q407.9 0.5 405.68-0.88 403.45-2.25 402.13-4.53 400.8-6.8 400.8-9.55L400.8-9.55 400.8-11.85Q400.8-12.1 401.05-12.1L401.05-12.1 406.65-12.1Q406.85-12.1 406.85-11.85L406.85-11.85 406.85-9.55Q406.85-7.9 407.95-6.73 409.05-5.55 410.6-5.55L410.6-5.55Q412.15-5.55 413.25-6.75 414.35-7.95 414.35-9.55L414.35-9.55Q414.35-11.4 411.95-12.75L411.95-12.75Q411.15-13.2 409.45-14.15 407.75-15.1 406.25-15.95L406.25-15.95Q403.5-17.55 402.18-19.98 400.85-22.4 400.85-25.45L400.85-25.45Q400.85-28.25 402.2-30.48 403.55-32.7 405.78-34 408-35.3 410.6-35.3L410.6-35.3Q413.25-35.3 415.48-33.98 417.7-32.65 419.03-30.43 420.35-28.2 420.35-25.45L420.35-25.45 420.35-21.35Q420.35-21.15 420.15-21.15L420.15-21.15 414.55-21.15Q414.35-21.15 414.35-21.35L414.35-21.35 414.3-25.45Q414.3-27.2 413.2-28.3 412.1-29.4 410.6-29.4L410.6-29.4Q409.05-29.4 407.95-28.23 406.85-27.05 406.85-25.45L406.85-25.45Q406.85-23.8 407.55-22.7 408.25-21.6 410.1-20.6L410.1-20.6Q410.35-20.45 411.08-20.08 411.8-19.7 412.65-19.23 413.5-18.75 414.18-18.4 414.85-18.05 415-17.95L415-17.95Q417.5-16.55 418.95-14.53 420.4-12.5 420.4-9.55L420.4-9.55Q420.4-6.7 419.08-4.42 417.75-2.15 415.53-0.83 413.3 0.5 410.6 0.5ZM434.3 0L428.65 0Q428.45 0 428.45-0.25L428.45-0.25 428.45-28.75 421.95-28.75Q421.7-28.75 421.7-29L421.7-29 421.75-34.6Q421.75-34.8 421.95-34.8L421.95-34.8 440.95-34.8Q441.2-34.8 441.2-34.6L441.2-34.6 441.2-29Q441.2-28.75 441-28.75L441-28.75 434.45-28.75 434.5-0.25Q434.5 0 434.3 0L434.3 0ZM440.15-0.25L440.15-0.25 446.35-34.6Q446.4-34.8 446.6-34.8L446.6-34.8 453.85-34.8Q454.05-34.8 454.1-34.6L454.1-34.6 460.05-0.25Q460.1 0 459.85 0L459.85 0 454.3 0Q454.1 0 454.05-0.25L454.05-0.25 453.5-3.9 446.7-3.9 446.15-0.25Q446.1 0 445.9 0L445.9 0 440.35 0Q440.15 0 440.15-0.25ZM449.95-23.3L447.7-9.25 452.5-9.25 450.45-23.3 450.15-25.15 449.95-23.3ZM471.34 0.5L471.34 0.5Q468.59 0.5 466.37-0.88 464.14-2.25 462.84-4.55 461.54-6.85 461.54-9.7L461.54-9.7 461.59-25.3Q461.59-28.05 462.87-30.33 464.14-32.6 466.37-33.98 468.59-35.35 471.34-35.35L471.34-35.35Q474.09-35.35 476.29-34 478.49-32.65 479.79-30.38 481.09-28.1 481.09-25.3L481.09-25.3 481.09-23Q481.09-22.8 480.89-22.8L480.89-22.8 475.29-22.8Q475.09-22.8 475.09-23L475.09-23 475.09-25.3Q475.09-26.95 474.02-28.15 472.94-29.35 471.34-29.35L471.34-29.35Q469.54-29.35 468.59-28.13 467.64-26.9 467.64-25.3L467.64-25.3 467.64-9.7Q467.64-7.85 468.72-6.7 469.79-5.55 471.34-5.55L471.34-5.55Q472.94-5.55 474.02-6.83 475.09-8.1 475.09-9.7L475.09-9.7 475.09-12Q475.09-12.2 475.29-12.2L475.29-12.2 480.94-12.2Q481.14-12.2 481.14-12L481.14-12 481.14-9.7Q481.14-6.85 479.82-4.55 478.49-2.25 476.29-0.88 474.09 0.5 471.34 0.5ZM490.64 0L484.99 0Q484.79 0 484.79-0.25L484.79-0.25 484.89-34.55Q484.89-34.8 485.09-34.8L485.09-34.8 490.69-34.8Q490.89-34.8 490.89-34.55L490.89-34.55 490.89-22.7 498.74-34.6Q498.89-34.8 499.09-34.8L499.09-34.8 504.84-34.8Q505.04-34.8 504.94-34.6L504.94-34.6 496.29-20.8 505.99-0.2Q506.09 0 505.74 0L505.74 0 499.64 0Q499.39 0 499.34-0.2L499.34-0.2 492.59-14.9 490.84-12.15 490.84-0.25Q490.84 0 490.64 0L490.64 0ZM524.78 0L515.84 0Q515.63 0 515.63-0.25L515.63-0.25 515.74-34.6Q515.74-34.8 515.93-34.8L515.93-34.8 525.53-34.8Q528.38-34.8 530.63-33.43 532.88-32.05 534.18-29.8 535.49-27.55 535.49-24.9L535.49-24.9Q535.49-22.75 534.51-20.9 533.53-19.05 532.18-17.9L532.18-17.9Q533.63-16.45 534.43-14.55 535.24-12.65 535.24-10.55L535.24-10.55Q535.24-7.65 533.84-5.25 532.43-2.85 530.06-1.43 527.68 0 524.78 0L524.78 0ZM521.74-28.85L521.74-21 525.53-21Q527.28-21 528.36-22.23 529.43-23.45 529.43-24.9L529.43-24.9Q529.43-26.5 528.28-27.68 527.13-28.85 525.53-28.85L525.53-28.85 521.74-28.85ZM521.74-14.95L521.68-6.1 524.78-6.1Q526.59-6.1 527.88-7.43 529.18-8.75 529.18-10.55L529.18-10.55Q529.18-12.35 527.88-13.65 526.59-14.95 524.78-14.95L524.78-14.95 521.74-14.95ZM547.73 0L541.98 0Q541.83 0 541.83-0.2L541.83-0.2 541.88-14.4 535.18-34.6Q535.13-34.8 535.33-34.8L535.33-34.8 540.88-34.8Q541.13-34.8 541.18-34.6L541.18-34.6 544.88-21.15 548.63-34.6Q548.68-34.8 548.88-34.8L548.88-34.8 554.48-34.8Q554.68-34.8 554.63-34.6L554.63-34.6 547.88-14.6 547.93-0.2Q547.93 0 547.73 0L547.73 0ZM564.23-0.25L564.23-0.25 570.43-34.6Q570.48-34.8 570.68-34.8L570.68-34.8 577.93-34.8Q578.13-34.8 578.18-34.6L578.18-34.6 584.13-0.25Q584.18 0 583.93 0L583.93 0 578.38 0Q578.18 0 578.13-0.25L578.13-0.25 577.58-3.9 570.78-3.9 570.23-0.25Q570.18 0 569.98 0L569.98 0 564.43 0Q564.23 0 564.23-0.25ZM574.03-23.3L571.78-9.25 576.58-9.25 574.53-23.3 574.23-25.15 574.03-23.3ZM593.12 0L587.47 0Q587.27 0 587.27-0.25L587.27-0.25 587.37-34.55Q587.37-34.8 587.57-34.8L587.57-34.8 593.17-34.8Q593.37-34.8 593.37-34.55L593.37-34.55 593.37-22.7 601.22-34.6Q601.37-34.8 601.57-34.8L601.57-34.8 607.32-34.8Q607.52-34.8 607.42-34.6L607.42-34.6 598.77-20.8 608.47-0.2Q608.57 0 608.22 0L608.22 0 602.12 0Q601.87 0 601.82-0.2L601.82-0.2 595.07-14.9 593.32-12.15 593.32-0.25Q593.32 0 593.12 0L593.12 0ZM616.62 0L610.97 0Q610.72 0 610.72-0.25L610.72-0.25 610.77-34.6Q610.77-34.8 610.97-34.8L610.97-34.8 616.57-34.8Q616.77-34.8 616.77-34.6L616.77-34.6 616.82-0.25Q616.82 0 616.62 0L616.62 0ZM626.67 0L621.67 0Q621.27 0 621.27-0.35L621.27-0.35 621.22-34.4Q621.22-34.8 621.62-34.8L621.62-34.8 626.12-34.8 634.57-15.1 634.32-34.4Q634.32-34.8 634.77-34.8L634.77-34.8 639.72-34.8Q640.02-34.8 640.02-34.4L640.02-34.4 640.07-0.3Q640.07 0 639.82 0L639.82 0 635.42 0 626.77-18.4 627.12-0.4Q627.12 0 626.67 0L626.67 0ZM652.92 0.5L652.92 0.5Q650.22 0.5 647.99-0.88 645.77-2.25 644.44-4.53 643.12-6.8 643.12-9.55L643.12-9.55 643.12-11.85Q643.12-12.1 643.37-12.1L643.37-12.1 648.97-12.1Q649.17-12.1 649.17-11.85L649.17-11.85 649.17-9.55Q649.17-7.9 650.27-6.73 651.37-5.55 652.92-5.55L652.92-5.55Q654.47-5.55 655.57-6.75 656.67-7.95 656.67-9.55L656.67-9.55Q656.67-11.4 654.27-12.75L654.27-12.75Q653.47-13.2 651.77-14.15 650.07-15.1 648.57-15.95L648.57-15.95Q645.82-17.55 644.49-19.98 643.17-22.4 643.17-25.45L643.17-25.45Q643.17-28.25 644.52-30.48 645.87-32.7 648.09-34 650.32-35.3 652.92-35.3L652.92-35.3Q655.57-35.3 657.79-33.98 660.02-32.65 661.34-30.43 662.67-28.2 662.67-25.45L662.67-25.45 662.67-21.35Q662.67-21.15 662.47-21.15L662.47-21.15 656.87-21.15Q656.67-21.15 656.67-21.35L656.67-21.35 656.62-25.45Q656.62-27.2 655.52-28.3 654.42-29.4 652.92-29.4L652.92-29.4Q651.37-29.4 650.27-28.23 649.17-27.05 649.17-25.45L649.17-25.45Q649.17-23.8 649.87-22.7 650.57-21.6 652.42-20.6L652.42-20.6Q652.67-20.45 653.39-20.08 654.12-19.7 654.97-19.23 655.82-18.75 656.49-18.4 657.17-18.05 657.32-17.95L657.32-17.95Q659.82-16.55 661.27-14.53 662.72-12.5 662.72-9.55L662.72-9.55Q662.72-6.7 661.39-4.42 660.07-2.15 657.84-0.83 655.62 0.5 652.92 0.5ZM663.51-0.25L663.51-0.25 669.71-34.6Q669.76-34.8 669.96-34.8L669.96-34.8 677.21-34.8Q677.41-34.8 677.46-34.6L677.46-34.6 683.41-0.25Q683.46 0 683.21 0L683.21 0 677.66 0Q677.46 0 677.41-0.25L677.41-0.25 676.86-3.9 670.06-3.9 669.51-0.25Q669.46 0 669.26 0L669.26 0 663.71 0Q663.51 0 663.51-0.25ZM673.31-23.3L671.06-9.25 675.86-9.25 673.81-23.3 673.51-25.15 673.31-23.3ZM692.01 0L687.01 0Q686.61 0 686.61-0.35L686.61-0.35 686.56-34.4Q686.56-34.8 686.96-34.8L686.96-34.8 691.46-34.8 699.91-15.1 699.66-34.4Q699.66-34.8 700.11-34.8L700.11-34.8 705.06-34.8Q705.36-34.8 705.36-34.4L705.36-34.4 705.41-0.3Q705.41 0 705.16 0L705.16 0 700.76 0 692.11-18.4 692.46-0.4Q692.46 0 692.01 0L692.01 0ZM715.61 0L709.96 0Q709.76 0 709.76-0.25L709.76-0.25 709.86-34.6Q709.86-34.8 710.06-34.8L710.06-34.8 716.16-34.8Q716.36-34.8 716.51-34.6L716.51-34.6 721.06-28 725.61-34.6Q725.76-34.8 725.96-34.8L725.96-34.8 732.11-34.8Q732.31-34.8 732.31-34.6L732.31-34.6 732.41-0.25Q732.41 0 732.21 0L732.21 0 726.56 0Q726.36 0 726.36-0.25L726.36-0.25 726.31-25.75 721.06-18.15 715.86-25.75 715.81-0.25Q715.81 0 715.61 0L715.61 0ZM742.51 0L736.86 0Q736.61 0 736.61-0.25L736.61-0.25 736.66-34.6Q736.66-34.8 736.86-34.8L736.86-34.8 742.46-34.8Q742.66-34.8 742.66-34.6L742.66-34.6 742.71-0.25Q742.71 0 742.51 0L742.51 0ZM756.3-0.05L747.35 0Q747.1 0 747.1-0.25L747.1-0.25 747.2-34.6Q747.2-34.8 747.4-34.8L747.4-34.8 756.75-34.85Q759.5-34.9 761.78-33.55 764.05-32.2 765.4-29.93 766.75-27.65 766.75-24.9L766.75-24.9 766.75-10.55Q766.75-7.65 765.35-5.28 763.95-2.9 761.6-1.5 759.25-0.1 756.3-0.05L756.3-0.05ZM753.25-28.8L753.2-6.15 756.3-6.15Q758.15-6.15 759.43-7.45 760.7-8.75 760.7-10.55L760.7-10.55 760.7-24.95Q760.7-26.55 759.53-27.73 758.35-28.9 756.75-28.85L756.75-28.85 753.25-28.8ZM787.05 0L770.9 0Q770.7 0 770.7-0.25L770.7-0.25 770.75-34.6Q770.75-34.8 770.95-34.8L770.95-34.8 787-34.8Q787.2-34.8 787.2-34.55L787.2-34.55 787.2-28.95Q787.2-28.75 787-28.75L787-28.75 776.75-28.75 776.75-20.95 787-20.95Q787.2-20.95 787.2-20.75L787.2-20.75 787.25-15.1Q787.25-14.9 787.05-14.9L787.05-14.9 776.75-14.9 776.75-6.15 787.05-6.15Q787.25-6.15 787.25-5.9L787.25-5.9 787.25-0.2Q787.25 0 787.05 0L787.05 0ZM803.35 0L797.3 0Q797.1 0 797.05-0.25L797.05-0.25 790.15-34.6Q790.1-34.8 790.35-34.8L790.35-34.8 796-34.8Q796.2-34.8 796.25-34.6L796.25-34.6 800.35-11.7 804.35-34.6Q804.4-34.8 804.6-34.8L804.6-34.8 810.2-34.8Q810.45-34.8 810.4-34.6L810.4-34.6 803.6-0.25Q803.55 0 803.35 0L803.35 0Z" opacity="1" transform="matrix(1,0,0,1,0,0)" fill="#000000" class="undefined-text-1" data-fill-palette-color="secondary" id="text-1"></path></svg></g></svg></g></svg></g></svg></g></svg></g></svg></g><defs></defs></svg><rect width="395.5199999999999" height="135.9459370590109" fill="none" stroke="none" visibility="hidden"></rect></g></svg></g></svg>